<svg width="32" height="33" viewBox="0 0 32 33" fill="none" xmlns="http://www.w3.org/2000/svg">
<g id="fluent:news-28-regular">
<path id="Vector" d="M25.9994 28.2287H5.99944C5.05071 28.2288 4.13792 27.8658 3.44832 27.2142C2.75872 26.5627 2.34458 25.6719 2.29087 24.7247L2.28516 24.5144V7.94301C2.28508 7.29144 2.53235 6.66413 2.97701 6.18786C3.42166 5.7116 4.03054 5.42189 4.68059 5.3773L4.85659 5.37158H22.5709C23.2224 5.3715 23.8498 5.61878 24.326 6.06343C24.8023 6.50809 25.092 7.11697 25.1366 7.76701L25.1423 7.94301V8.80015H27.1423C27.7939 8.80007 28.4212 9.04735 28.8974 9.492C29.3737 9.93666 29.6634 10.5455 29.708 11.1956L29.7137 11.3716V24.5144C29.7138 25.4632 29.3508 26.376 28.6992 27.0656C28.0477 27.7552 27.1569 28.1693 26.2097 28.223L25.9994 28.2287ZM5.99944 26.5144H25.9994C26.5016 26.5144 26.9853 26.3255 27.3545 25.9852C27.7238 25.645 27.9516 25.1783 27.9926 24.6779L27.9994 24.5144V11.3716C27.9994 11.1645 27.9244 10.9643 27.7883 10.8082C27.6521 10.6521 27.4641 10.5506 27.2589 10.5224L27.1423 10.5144H25.1423V22.8002C25.1423 23.0073 25.0673 23.2074 24.9311 23.3635C24.795 23.5196 24.6069 23.6211 24.4017 23.6493L24.2852 23.6573C24.078 23.6573 23.8779 23.5823 23.7218 23.4461C23.5657 23.31 23.4642 23.1219 23.436 22.9167L23.428 22.8002V7.94301C23.428 7.73588 23.353 7.53576 23.2169 7.37966C23.0807 7.22356 22.8926 7.12204 22.6874 7.09387L22.5709 7.08587H4.85659C4.64946 7.08588 4.44934 7.16089 4.29324 7.29703C4.13713 7.43317 4.03561 7.62123 4.00744 7.82644L3.99944 7.94301V24.5144C3.99946 25.0164 4.18821 25.4999 4.52822 25.8692C4.86823 26.2384 5.33464 26.4663 5.83487 26.5076L5.99944 26.5144ZM11.7092 15.6619C12.4977 15.6619 13.1377 16.3019 13.1377 17.0904V21.0859C13.1377 21.8744 12.4977 22.5144 11.7092 22.5144H7.71373C6.92516 22.5144 6.28516 21.8744 6.28516 21.0859V17.0904C6.28516 16.3019 6.92516 15.6619 7.71373 15.6619H11.7092ZM16.2852 20.8002H20.2806C20.4978 20.8002 20.7068 20.8827 20.8655 21.031C21.0242 21.1792 21.1207 21.3822 21.1355 21.5989C21.1503 21.8155 21.0823 22.0297 20.9452 22.1982C20.8082 22.3667 20.6123 22.4768 20.3972 22.5064L20.2806 22.5144H16.2852C16.068 22.5144 15.8589 22.4319 15.7003 22.2836C15.5416 22.1354 15.4451 21.9324 15.4303 21.7157C15.4155 21.4991 15.4835 21.2848 15.6205 21.1164C15.7576 20.9479 15.9534 20.8378 16.1686 20.8082L16.2852 20.8002ZM11.4246 17.3762H7.99944V20.8002H11.4246V17.3762ZM16.2852 15.6619H20.2806C20.4978 15.6619 20.7068 15.7444 20.8655 15.8927C21.0242 16.041 21.1207 16.2439 21.1355 16.4606C21.1503 16.6773 21.0823 16.8915 20.9452 17.0599C20.8082 17.2284 20.6123 17.3386 20.3972 17.3682L20.2806 17.3762H16.2852C16.0664 17.3784 15.8551 17.2969 15.6945 17.1484C15.5339 16.9999 15.4362 16.7957 15.4213 16.5774C15.4064 16.3592 15.4755 16.1436 15.6144 15.9746C15.7533 15.8057 15.9516 15.6962 16.1686 15.6687L16.2852 15.6619ZM7.13773 10.511H20.2806C20.4978 10.5111 20.7068 10.5936 20.8655 10.7418C21.0242 10.8901 21.1207 11.0931 21.1355 11.3097C21.1503 11.5264 21.0823 11.7406 20.9452 11.9091C20.8082 12.0775 20.6123 12.1877 20.3972 12.2173L20.2806 12.2253H7.13773C6.92066 12.2249 6.7118 12.1422 6.55334 11.9939C6.39487 11.8455 6.29859 11.6426 6.28394 11.426C6.26929 11.2094 6.33735 10.9954 6.4744 10.827C6.61144 10.6587 6.80725 10.5486 7.0223 10.519L7.13773 10.511Z" fill="#464950" stroke="#464950" stroke-width="0.5"/>
</g>
</svg>
