<svg width="43" height="42" viewBox="0 0 43 42" fill="none" xmlns="http://www.w3.org/2000/svg">
<g id="class-scene-svgrepo-com 1" clip-path="url(#clip0_1104_577)">
<g id="Group">
<path id="Vector" d="M10.2929 6.14951C10.2929 7.77588 8.97436 9.09547 7.34702 9.09547C5.71879 9.09547 4.40039 7.77582 4.40039 6.14951C4.40039 4.52128 5.71873 3.20288 7.34702 3.20288C8.97442 3.20288 10.2929 4.52122 10.2929 6.14951Z" stroke="black"/>
<path id="Vector_2" d="M18.7404 19.4913L18.4993 19.6662L18.5384 19.9614C18.5417 19.9867 18.5444 20.0065 18.5466 20.0224C18.5526 20.066 18.5546 20.0809 18.5546 20.1009C18.5546 20.6597 18.102 21.1122 17.5435 21.1122H13.3161C12.6415 21.1122 12.0673 20.6207 11.9623 19.953L11.9597 19.9365L11.956 19.9202L11.5237 18.0114L11.4355 17.6219H11.0361H10.9981H10.517L10.4985 18.1026L9.74345 37.6695L9.74308 37.6791V37.6888C9.74308 38.301 9.2467 38.7974 8.63445 38.7974H8.62923H8.624H8.61875H8.61349H8.6082H8.6029H8.59758H8.59224H8.58689H8.58152H8.57613H8.57073H8.56531H8.55987H8.55442H8.54894H8.54346H8.53795H8.53243H8.5269H8.52135H8.51578H8.51019H8.50459H8.49898H8.49334H8.4877H8.48203H8.47635H8.47066H8.46495H8.45922H8.45348H8.44773H8.44196H8.43617H8.43037H8.42456H8.41873H8.41288H8.40703H8.40115H8.39526H8.38936H8.38345H8.37752H8.37157H8.36561H8.35964H8.35365H8.34765H8.34164H8.33561H8.32957H8.32352H8.31745H8.31137H8.30527H8.29916H8.29304H8.28691H8.28076H8.2746H8.26843H8.26225H8.25605H8.24984H8.24362H8.23738H8.23114H8.22488H8.21861H8.21232H8.20603H8.19972H8.1934H8.18707H8.18073H8.17437H8.16801H8.16163H8.15524H8.14884H8.14243H8.13601H8.12958H8.12314H8.11668H8.11022H8.10374H8.09725H8.09076H8.08425H8.07773H8.0712H8.06467H8.05812H8.05156H8.04499H8.03841H8.03183H8.02523H8.01862H8.012H8.00538H7.99874H7.99209H7.98544H7.97878H7.9721H7.96542H7.95873H7.95203H7.94532H7.93861H7.93188H7.92515H7.9184H7.91165H7.90489H7.89812H7.89135H7.88456H7.87777H7.87097H7.86416H7.85735H7.85053H7.84369H7.83686H7.83001H7.82316H7.8163H7.80943H7.80255H7.79567H7.78878H7.78189H7.77499H7.76808H7.76116H7.75424H7.74731H7.74038H7.73343H7.72649H7.71953H7.71257H7.70561H7.69863H7.69166H7.68467H7.67768H7.67069H7.66369H7.65668H7.64967H7.64265H7.63563H7.6286H7.62157H7.61453H7.60749H7.60045H7.59339H7.58634H7.57928H7.57221H7.56514H7.55807H7.55099H7.54391H7.53682H7.52973H7.52264H7.51554H7.50844H7.50133H7.49422H7.48711H7.47999H7.47287H7.46575H7.45862H7.45149H7.44436H7.43722H7.43008H7.42294H7.4158H7.40865H7.4015H7.39435H7.38719H7.38004H7.37288H7.36571H7.35855H7.35139H7.34422H7.33705H7.32988H7.3227H7.31553H7.30835H7.30117H7.29399H7.28681H7.27963H7.27245H7.26527H7.25808H7.25089H7.24371H7.23652H7.22933H7.22214H7.21495H7.20776H7.20057H7.19338H7.18619H7.179H7.17181H7.16462H7.15742H7.15023H7.14304H7.13585H7.12866H7.12147H7.11428H7.1071H7.09991H7.09272H7.08554H7.07835H7.07117H7.06398H7.0568H7.04962H7.04244H7.03527H7.02809H7.02092H7.01374H7.00657H6.9994H6.99223H6.98507H6.97791H6.97075H6.96359H6.95643H6.94928H6.94212H6.93497H6.92783H6.92068H6.91354H6.90641H6.89927H6.89214H6.88501H6.87788H6.87076H6.86364H6.85652H6.84941H6.8423H6.8352H6.8281H6.821H6.81391H6.80682H6.79973H6.79265H6.78557H6.7785H6.77143H6.76436H6.75731H6.75025H6.7432H6.73615H6.72911H6.72208H6.71505H6.70802H6.701H6.69398H6.68697H6.67997H6.67297H6.66598H6.65899H6.65201H6.64503H6.63806H6.63109H6.62413H6.61718H6.61024H6.6033H6.59636H6.58943H6.58251H6.5756H6.56869H6.56179H6.5549H6.54801H6.54113H6.53426H6.52739H6.52053H6.51368H6.50683H6.5H6.49317H6.48635H6.47953H6.47273H6.46593H6.45914H6.45236H6.44558H6.43882H6.43206H6.42531H6.41857H6.41184H6.40511H6.3984H6.39169H6.38499H6.3783H6.37162H6.36495H6.35829H6.35164H6.345H6.33836H6.33174H6.32512H6.31852H6.31192H6.30534H6.29876H6.29219H6.28564H6.27909H6.27255H6.26603H6.25951H6.25301H6.24651H6.24003H6.23356H6.22709H6.22064H6.2142H6.20777H6.20135H6.19494H6.18855H6.18216H6.17579H6.16942H6.16307H6.15673H6.1504H6.14409H6.13778H6.13149H6.12521H6.11894H6.11268H6.10644H6.10021H6.09399H6.08778H6.08159H6.07541H6.06924H6.06308H6.05694H6.0508H6.04469H6.03858H6.03249H6.02641H6.02035H6.0143H6.00826H6.00223H5.99622H5.99022H5.98424H5.97827H5.97232H5.96637H5.96045H5.95453H5.94863H5.94275H5.93688H5.93102H5.92518H5.91936H5.91354H5.90775H5.90197H5.8962H5.89045H5.88471H5.87899H5.87328H5.86759H5.86192H5.85626H5.85061H5.84498H5.83937H5.83377H5.82819H5.82263H5.81708H5.81155H5.80603H5.80053H5.79504H5.78958H5.78413H5.77869H5.77328H5.76787H5.76249H5.75712H5.75177H5.74644H5.74113H5.73583H5.73055H5.72529H5.72004H5.71481H5.7096H5.70441H5.69923H5.69408H5.68894H5.68382H5.67871H5.67363H5.66856H5.66352H5.65849H5.65348H5.64848H5.64351H5.63856H5.63362H5.6287H5.62381H5.61893H5.61407H5.60923H5.60441H5.5996H5.59482H5.59006H5.58532H5.58059H5.57589H5.57121H5.56654H5.5619H5.55728H5.55267H5.54809H5.54353H5.53899H5.53447H5.52997H5.52549H5.52103H5.51659H5.51217H5.50777H5.5034H5.49904H5.49471H5.4904H5.48611H5.48184H5.47759H5.47337H5.46916H5.46498H5.46082H5.45668H5.45257H5.44847H5.4444H5.44035H5.43633H5.43232H5.42834H5.42438H5.42044H5.41653C4.80401 38.7974 4.30724 38.3008 4.30724 37.6888V37.6742L4.30639 37.6597L3.73177 27.7812L3.70437 27.3102H3.23261H3.22644H3.22031H3.21421H3.20814H3.20211H3.19611H3.19014H3.18421H3.17831H3.17244H3.1666H3.1608H3.15503H3.14929H3.14358H3.13791H3.13226H3.12665H3.12107H3.11552H3.11001H3.10452H3.09907H3.09364H3.08825H3.08289H3.07756H3.07226H3.067H3.06176H3.05655H3.05137H3.04623H3.04111H3.03603H3.03097H3.02594H3.02095H3.01598H3.01104H3.00613H3.00126H2.99641H2.99159H2.9868H2.98203H2.9773H2.9726H2.96792H2.96327H2.95866H2.95407H2.9495H2.94497H2.94046H2.93598H2.93153H2.92711H2.92272H2.91835H2.91401H2.9097H2.90541H2.90115H2.89692H2.89272H2.88854H2.88439H2.88027H2.87617H2.8721H2.86805H2.86403H2.86004H2.85607H2.85213H2.84822H2.84433H2.84047H2.83663H2.83281H2.82903H2.82526H2.82153H2.81781H2.81413H2.81046H2.80683H2.80321H2.79962H2.79606H2.79252H2.789H2.78551H2.78204H2.7786H2.77518H2.77178H2.7684H2.76505H2.76173H2.75842H2.75514H2.75189H2.74865H2.74544H2.74225H2.73908H2.73594H2.73282H2.72972H2.72664H2.72359H2.72056H2.71754H2.71456H2.71159H2.70864H2.70572H2.70281H2.69993H2.69707H2.69423H2.69141H2.68862H2.68584H2.68308H2.68035H2.67763H2.67494H2.67226H2.66961H2.66698H2.66436H2.66177H2.65919H2.65664H2.6541H2.65158H2.64909H2.64661H2.64415H2.64171H2.63929H2.63689H2.63451H2.63214H2.6298H2.62747H2.62516H2.62287H2.6206H2.61834H2.61611H2.61389H2.61169H2.6095H2.60734H2.60519H2.60306H2.60094H2.59885H2.59677H2.5947H2.59266H2.59063H2.58861H2.58662H2.58464H2.58267H2.58072H2.57879H2.57688H2.57498H2.57309H2.57122H2.56937H2.56753H2.56571H2.5639H2.56211H2.56034H2.55857H2.55683H2.55509H2.55338H2.55167H2.54999H2.54831H2.54665H2.54501H2.54337H2.54176H2.54015H2.53856H2.53698H2.53542H2.53387H2.53233H2.53081H2.5293H2.5278H2.52632H2.52485H2.52339H2.52194H2.52051H2.51909H2.51768H2.51628H2.51489H2.51352H2.51216H2.51081H2.50947H2.50815H2.50683H2.50553H2.50424H2.50296H2.50169H2.50043H2.49918H2.49794H2.49672H2.4955H2.49429H2.4931H2.49191H2.49074H2.48957H2.48842H2.48727H2.48614H2.48501H2.4839H2.48279H2.48169H2.4806H2.47952H2.47845H2.47739H2.47634H2.4753H2.47426H2.47323H2.47222H2.47121H2.4702H2.46921H2.46823H2.46725H2.46628H2.46531H2.46436H2.46341H2.46247H2.46154H2.46061H2.4597H2.45878H2.45788H2.45698H2.45609H2.45521H2.45433H2.45346H2.45259H2.45173H2.45088H2.45003H2.44919H2.44835H2.44752H2.4467H2.44588H2.44506H2.44425H2.44345H2.44265H2.44186H2.44107H2.44029H2.43951H2.43873H2.43796H2.43719H2.43643H2.43567H2.43492H2.43417H2.43342H2.43268H2.43194H2.43121H2.43047H2.42974H2.42902H2.4283H2.42758H2.42686H2.42615H2.42543H2.42473H2.42402H2.42331H2.42261H2.42191H2.42122H2.42052H2.41983H2.41913H2.41844H2.41775H2.41707H2.41638H2.4157H2.41501H2.41433H2.41365H2.41297H2.41229H2.41161H2.41093H2.41025H2.40957H2.40889H2.40822H2.40754H2.40686H2.40618H2.4055H2.40482H2.40414H2.40346H2.40278H2.4021H2.40142H2.40073H2.40005H2.39936H2.39868H2.39799H2.3973H2.39661H2.39591H2.39522H2.39452H2.39382H2.39312H2.39242H2.39171H2.391H2.39029H2.38958H2.38886H2.38814H2.38742H2.38669H2.38596H2.38523H2.3845H2.38376H2.38302H2.38227H2.38152H2.38077H2.38001H2.37925H2.37848H2.37771H2.37694H2.37616H2.37537H2.37459H2.37379H2.37299H2.37219H2.37138H2.37057H2.36975H2.36893H2.3681H2.36726H2.36642H2.36558H2.36472H2.36386H2.363H2.36213H2.36125H2.36037H2.35948H2.35858H2.35768H2.35676H2.35585H2.35492H2.35399H2.35305H2.35211H2.35115H2.35019H2.34922H2.34824H2.34726H2.34627H2.34527H2.34426H2.34324H2.34221H2.34118H2.34014H2.33909H2.33803H2.33696H2.33588H2.33479H2.3337H2.33259H2.33147H2.33035H2.32922H2.32807H2.32692H2.32575H2.32458H2.3234H2.3222H2.321H2.31978H2.31856H2.31732H2.31608H2.31482H2.31355H2.31227H2.31098H2.30968H2.30837H2.30704H2.3057H2.30436H2.303H2.30163H2.30024H2.29885H2.29744H2.29602H2.29459H2.29314H2.29168H2.29021H2.28873H2.28724H2.28573H2.28421H2.28267H2.28112H2.27956H2.27799H2.2764H2.27479H2.27318H2.27155H2.2699H2.26825H2.26657H2.26489H2.26319H2.26147H2.25974H2.25799H2.25623H2.25446H2.25267H2.25086H2.24904H2.24721H2.24536H2.24349H2.24161H2.23971H2.2378H2.23587H2.23392H2.23196H2.22998H2.22799H2.22598H2.22395H2.2219H2.21984H2.21776H2.21567H2.21356H2.21143H2.20928H2.20712H2.20494H2.20274H2.20052H2.19829H2.19603H2.19376H2.19148H2.18917H2.18684H2.1845H2.18214H2.17976H2.17736C1.61887 27.3102 1.16602 26.8573 1.16602 26.2982V14.7152C1.16602 14.0518 1.53549 13.2999 2.13664 12.6987C2.73781 12.0974 3.48951 11.728 4.15243 11.728H11.2317C11.8818 11.728 12.3532 12.0134 12.7256 12.5311C13.1141 13.0712 13.3859 13.8582 13.5674 14.8054L14.2471 18.6754L14.3197 19.0889H14.7395H17.5432C17.6891 19.0889 17.8292 19.1224 17.9632 19.1835L18.2285 19.3046L18.4645 19.1333L23.621 15.3905C23.6211 15.3904 23.6213 15.3903 23.6214 15.3902C23.6627 15.3605 23.7074 15.3465 23.7542 15.3465C23.8257 15.3465 23.8952 15.3817 23.9379 15.44C24.0103 15.5402 23.9879 15.6826 23.8872 15.7558L18.7404 19.4913ZM5.74627 17.9536V18.1199L5.8459 18.2531L6.77359 19.4933L7.14951 19.9958L7.55535 19.5171L8.60674 18.2769L8.72536 18.137V17.9536V12.4474V11.9474H8.22536H6.24627H5.74627V12.4474V17.9536Z" stroke="black"/>
<path id="Vector_3" d="M18.2584 5.37305H17.7584V5.87305V15.9776H16.7793V4.39404H42.1666V26.2632H16.7793V22.9038H17.7584V24.7842V25.2842H18.2584H40.6875H41.1875V24.7842V5.87305V5.37305H40.6875H18.2584Z" stroke="black"/>
<path id="Vector_4" d="M23.4522 29.5857C24.7177 29.5857 25.7435 30.6111 25.7435 31.8771C25.7435 33.1419 24.7175 34.1685 23.4522 34.1685C22.186 34.1685 21.1602 33.1419 21.1602 31.8771C21.1602 30.6111 22.1859 29.5857 23.4522 29.5857Z" stroke="black"/>
<path id="Vector_5" d="M19.8964 38.7973C20.6119 37.5159 21.9406 36.6638 23.4528 36.6638C24.9651 36.6638 26.2938 37.5159 27.0094 38.7973H19.8964Z" stroke="black"/>
<path id="Vector_6" d="M35.4912 29.5857C36.7568 29.5857 37.7826 30.6111 37.7826 31.8771C37.7826 33.142 36.7566 34.1685 35.4912 34.1685C34.2251 34.1685 33.1992 33.1419 33.1992 31.8771C33.1992 30.6111 34.225 29.5857 35.4912 29.5857Z" stroke="black"/>
<path id="Vector_7" d="M31.9354 38.7973C32.651 37.5159 33.9797 36.6638 35.492 36.6638C37.0042 36.6638 38.3329 37.5159 39.0484 38.7973H31.9354Z" stroke="black"/>
</g>
</g>
<defs>
<clipPath id="clip0_1104_577">
<rect width="42" height="42" fill="white" transform="translate(0.666016)"/>
</clipPath>
</defs>
</svg>
