<svg width="32" height="33" viewBox="0 0 32 33" fill="none" xmlns="http://www.w3.org/2000/svg">
<g id="ic:outline-class">
<path id="Vector" d="M24.0007 3.4668H8.00065C6.53398 3.4668 5.33398 4.6668 5.33398 6.13346V27.4668C5.33398 28.9335 6.53398 30.1335 8.00065 30.1335H24.0007C25.4673 30.1335 26.6673 28.9335 26.6673 27.4668V6.13346C26.6673 4.6668 25.4673 3.4668 24.0007 3.4668ZM12.0007 6.68346C12.0007 6.37971 12.2469 6.13346 12.5507 6.13346H14.1173C14.4211 6.13346 14.6673 6.37971 14.6673 6.68346V11.7001C14.6673 12.1534 14.1499 12.4121 13.7873 12.1401L13.664 12.0476C13.4684 11.901 13.1995 11.901 13.004 12.0476L12.8807 12.1401C12.5181 12.4121 12.0007 12.1534 12.0007 11.7001V6.68346ZM24.0007 26.9168C24.0007 27.2206 23.7544 27.4668 23.4507 27.4668H8.55065C8.24689 27.4668 8.00065 27.2206 8.00065 26.9168V6.68346C8.00065 6.37971 8.24689 6.13346 8.55065 6.13346H8.78398C9.08774 6.13346 9.33398 6.37971 9.33398 6.68346V17.0335C9.33398 17.4867 9.8514 17.7454 10.214 17.4735L13.004 15.381C13.1995 15.2343 13.4684 15.2343 13.664 15.381L16.454 17.4735C16.8166 17.7454 17.334 17.4867 17.334 17.0335V6.68346C17.334 6.37971 17.5802 6.13346 17.884 6.13346H23.4507C23.7544 6.13346 24.0007 6.37971 24.0007 6.68346V26.9168Z" fill="#464950"/>
</g>
</svg>
