<svg width="24" height="25" viewBox="0 0 24 25" fill="none" xmlns="http://www.w3.org/2000/svg">
<g id="element-4">
<path id="Vector" d="M21.5 11.7V4.90005C21.5 3.40005 20.86 2.80005 19.27 2.80005L15.23 2.80005C13.64 2.80005 13 3.40005 13 4.90005L13 11.7C13 13.2 13.64 13.8 15.23 13.8L19.27 13.8C20.86 13.8 21.5 13.2 21.5 11.7Z" fill="#464950"/>
<path id="Vector_2" d="M11 13.9L11 20.7C11 22.2 10.36 22.8 8.77 22.8H4.73C3.14 22.8 2.5 22.2 2.5 20.7L2.5 13.9C2.5 12.4 3.14 11.8 4.73 11.8L8.77 11.8C10.36 11.8 11 12.4 11 13.9Z" fill="#464950"/>
<path id="Vector_3" d="M21.5 20.7V17.9C21.5 16.4 20.86 15.8 19.27 15.8L15.23 15.8C13.64 15.8 13 16.4 13 17.9V20.7C13 22.2 13.64 22.8 15.23 22.8H19.27C20.86 22.8 21.5 22.2 21.5 20.7Z" fill="#464950"/>
<path id="Vector_4" d="M11 7.70005V4.90005C11 3.40005 10.36 2.80005 8.77 2.80005L4.73 2.80005C3.14 2.80005 2.5 3.40005 2.5 4.90005L2.5 7.70005C2.5 9.20005 3.14 9.80005 4.73 9.80005H8.77C10.36 9.80005 11 9.20005 11 7.70005Z" fill="#464950"/>
</g>
</svg>
