<svg width="22" height="22" viewBox="0 0 22 22" fill="none" xmlns="http://www.w3.org/2000/svg">
<g id="Vector">
<path d="M21.2826 11.75H7.41295C7.01695 11.75 6.69556 11.414 6.69556 11C6.69556 10.586 7.01695 10.25 7.41295 10.25H21.2826C21.6786 10.25 22 10.586 22 11C22 11.414 21.6786 11.75 21.2826 11.75Z" fill="#1246AC"/>
<path d="M11.239 15.7499C11.0553 15.7499 10.8718 15.677 10.732 15.53L6.90597 11.5301C6.62574 11.2369 6.62574 10.7619 6.90597 10.469L10.732 6.46904C11.0122 6.17608 11.4665 6.17608 11.747 6.46904C12.0272 6.76201 12.0272 7.23699 11.747 7.52995L8.4278 11L11.747 14.47C12.0272 14.7629 12.0272 15.2379 11.747 15.5309C11.6063 15.677 11.4226 15.7499 11.239 15.7499Z" fill="#1246AC"/>
<path d="M10.5218 22C4.72048 22 0 17.065 0 11C0 4.93503 4.72048 0 10.5218 0C14.8748 0 18.7182 2.73796 20.3146 6.9761C20.46 7.36098 20.2782 7.79604 19.91 7.94893C19.5417 8.09908 19.1256 7.91194 18.9793 7.52504C17.6009 3.86497 14.2809 1.49999 10.5218 1.49999C5.51143 1.49999 1.43478 5.76211 1.43478 11C1.43478 16.2379 5.51143 20.5 10.5218 20.5C14.2809 20.5 17.6009 18.135 18.9793 14.4761C19.1247 14.089 19.5408 13.902 19.91 14.052C20.2782 14.204 20.46 14.6399 20.3146 15.025C18.7182 19.262 14.8748 22 10.5218 22Z" fill="#1246AC"/>
</g>
</svg>
