<svg width="40" height="40" viewBox="0 0 40 40" fill="none" xmlns="http://www.w3.org/2000/svg">
<g id="notifications_none">
<path id="Vector" d="M19.9993 36.25C21.8327 36.25 23.3327 34.75 23.3327 32.9167H16.666C16.666 34.75 18.166 36.25 19.9993 36.25ZM29.9993 26.25V17.9167C29.9993 12.8 27.2827 8.51667 22.4993 7.38333V6.25C22.4993 4.86667 21.3827 3.75 19.9993 3.75C18.616 3.75 17.4993 4.86667 17.4993 6.25V7.38333C12.7327 8.51667 9.99935 12.7833 9.99935 17.9167V26.25L6.66602 29.5833V31.25H33.3327V29.5833L29.9993 26.25ZM26.666 27.9167H13.3327V17.9167C13.3327 13.7833 15.8493 10.4167 19.9993 10.4167C24.1493 10.4167 26.666 13.7833 26.666 17.9167V27.9167Z" fill="#464950"/>
</g>
</svg>
