<svg width="32" height="33" viewBox="0 0 32 33" fill="none" xmlns="http://www.w3.org/2000/svg">
<g id="ri:parent-line">
<path id="Vector" d="M9.33268 12.8001C10.2167 12.8001 11.0646 12.4489 11.6897 11.8238C12.3148 11.1987 12.666 10.3509 12.666 9.4668C12.666 8.58274 12.3148 7.7349 11.6897 7.10977C11.0646 6.48465 10.2167 6.13346 9.33268 6.13346C8.44863 6.13346 7.60078 6.48465 6.97566 7.10977C6.35054 7.7349 5.99935 8.58274 5.99935 9.4668C5.99935 10.3509 6.35054 11.1987 6.97566 11.8238C7.60078 12.4489 8.44863 12.8001 9.33268 12.8001ZM9.33268 15.4668C8.54475 15.4668 7.76453 15.3116 7.03658 15.0101C6.30863 14.7085 5.64719 14.2666 5.09004 13.7094C4.53289 13.1523 4.09093 12.4909 3.7894 11.7629C3.48788 11.0349 3.33268 10.2547 3.33268 9.4668C3.33268 8.67887 3.48788 7.89865 3.7894 7.1707C4.09093 6.44274 4.53289 5.78131 5.09004 5.22416C5.64719 4.667 6.30863 4.22505 7.03658 3.92352C7.76453 3.62199 8.54475 3.4668 9.33268 3.4668C10.924 3.4668 12.4501 4.09894 13.5753 5.22416C14.7005 6.34937 15.3327 7.8755 15.3327 9.4668C15.3327 11.0581 14.7005 12.5842 13.5753 13.7094C12.4501 14.8347 10.924 15.4668 9.33268 15.4668ZM23.3327 18.1335C24.0399 18.1335 24.7182 17.8525 25.2183 17.3524C25.7184 16.8523 25.9993 16.174 25.9993 15.4668C25.9993 14.7596 25.7184 14.0813 25.2183 13.5812C24.7182 13.0811 24.0399 12.8001 23.3327 12.8001C22.6254 12.8001 21.9472 13.0811 21.4471 13.5812C20.947 14.0813 20.666 14.7596 20.666 15.4668C20.666 16.174 20.947 16.8523 21.4471 17.3524C21.9472 17.8525 22.6254 18.1335 23.3327 18.1335ZM23.3327 20.8001C21.9182 20.8001 20.5616 20.2382 19.5614 19.238C18.5613 18.2378 17.9993 16.8813 17.9993 15.4668C17.9993 14.0523 18.5613 12.6958 19.5614 11.6956C20.5616 10.6954 21.9182 10.1335 23.3327 10.1335C24.7472 10.1335 26.1037 10.6954 27.1039 11.6956C28.1041 12.6958 28.666 14.0523 28.666 15.4668C28.666 16.8813 28.1041 18.2378 27.1039 19.238C26.1037 20.2382 24.7472 20.8001 23.3327 20.8001ZM26.666 28.8001V28.1335C26.666 27.2494 26.3148 26.4016 25.6897 25.7764C25.0646 25.1513 24.2167 24.8001 23.3327 24.8001C22.4486 24.8001 21.6008 25.1513 20.9757 25.7764C20.3505 26.4016 19.9993 27.2494 19.9993 28.1335V28.8001H17.3327V28.1335C17.3327 27.3455 17.4879 26.5653 17.7894 25.8374C18.0909 25.1094 18.5329 24.448 19.09 23.8908C19.6472 23.3337 20.3086 22.8917 21.0366 22.5902C21.7645 22.2887 22.5448 22.1335 23.3327 22.1335C24.1206 22.1335 24.9008 22.2887 25.6288 22.5902C26.3567 22.8917 27.0182 23.3337 27.5753 23.8908C28.1325 24.448 28.5744 25.1094 28.876 25.8374C29.1775 26.5653 29.3327 27.3455 29.3327 28.1335V28.8001H26.666ZM13.3327 28.8001V23.4668C13.3327 22.9415 13.2292 22.4214 13.0282 21.9361C12.8272 21.4508 12.5325 21.0098 12.1611 20.6384C11.7897 20.2669 11.3487 19.9723 10.8634 19.7713C10.3781 19.5703 9.85797 19.4668 9.33268 19.4668C8.80739 19.4668 8.28725 19.5703 7.80195 19.7713C7.31665 19.9723 6.87569 20.2669 6.50426 20.6384C6.13282 21.0098 5.83818 21.4508 5.63716 21.9361C5.43615 22.4214 5.33268 22.9415 5.33268 23.4668V28.8001H2.66602V23.4668C2.66602 21.6987 3.36839 20.003 4.61864 18.7528C5.86888 17.5025 7.56457 16.8001 9.33268 16.8001C11.1008 16.8001 12.7965 17.5025 14.0467 18.7528C15.297 20.003 15.9993 21.6987 15.9993 23.4668V28.8001H13.3327Z" fill="#464950"/>
</g>
</svg>
