<svg width="32" height="33" viewBox="0 0 32 33" fill="none" xmlns="http://www.w3.org/2000/svg">
<g id="ph:student-light">
<path id="Vector" d="M28.2375 8.08889L16.2375 4.08889C16.0833 4.03743 15.9167 4.03743 15.7625 4.08889L3.7625 8.08889C3.61327 8.13871 3.48349 8.2342 3.39151 8.36184C3.29954 8.48948 3.25003 8.64281 3.25 8.80014V18.8001C3.25 18.9991 3.32902 19.1898 3.46967 19.3305C3.61032 19.4711 3.80109 19.5501 4 19.5501C4.19891 19.5501 4.38968 19.4711 4.53033 19.3305C4.67098 19.1898 4.75 18.9991 4.75 18.8001V9.84014L9.585 11.4526C8.97528 12.3537 8.56212 13.3731 8.37239 14.4444C8.18266 15.5157 8.22062 16.6149 8.4838 17.6706C8.74698 18.7262 9.22948 19.7147 9.8999 20.5715C10.5703 21.4284 11.4136 22.1345 12.375 22.6439C9.96875 23.4601 7.875 25.0926 6.375 27.3939C6.28878 27.559 6.2671 27.7504 6.3142 27.9306C6.36129 28.1109 6.47379 28.2671 6.62977 28.369C6.78576 28.4708 6.97407 28.511 7.15804 28.4816C7.34201 28.4523 7.50847 28.3555 7.625 28.2101C9.55875 25.2489 12.61 23.5501 16 23.5501C19.39 23.5501 22.4412 25.2489 24.375 28.2101C24.4908 28.3586 24.6582 28.458 24.844 28.4887C25.0297 28.5194 25.2203 28.4791 25.3777 28.3759C25.5351 28.2726 25.6479 28.1139 25.6938 27.9313C25.7396 27.7487 25.715 27.5555 25.625 27.3901C24.125 25.0926 22.0338 23.4601 19.625 22.6401C20.5858 22.1302 21.4286 21.4237 22.0984 20.5666C22.7682 19.7094 23.25 18.7209 23.5126 17.6653C23.7752 16.6097 23.8126 15.5106 23.6224 14.4396C23.4322 13.3686 23.0187 12.3496 22.4088 11.4489L28.2375 9.51139C28.3866 9.46149 28.5163 9.36597 28.6082 9.23834C28.7001 9.1107 28.7495 8.95741 28.7495 8.80014C28.7495 8.64287 28.7001 8.48958 28.6082 8.36194C28.5163 8.23431 28.3866 8.13879 28.2375 8.08889ZM22.25 15.8001C22.2504 16.7961 22.0129 17.7777 21.5571 18.6632C21.1013 19.5487 20.4406 20.3124 19.6298 20.8908C18.8191 21.4692 17.8819 21.8455 16.8962 21.9883C15.9106 22.1311 14.9051 22.0363 13.9636 21.7118C13.022 21.3873 12.1716 20.8425 11.4833 20.1228C10.7949 19.4031 10.2885 18.5293 10.0063 17.5742C9.72401 16.6191 9.67408 15.6104 9.86063 14.6321C10.0472 13.6539 10.4648 12.7343 11.0787 11.9501L15.7625 13.5114C15.9167 13.5629 16.0833 13.5629 16.2375 13.5114L20.9212 11.9501C21.7835 13.0481 22.2515 14.4041 22.25 15.8001ZM16 12.0101L6.375 8.80014L16 5.59014L25.625 8.80014L16 12.0101Z" fill="#464950" stroke="#464950" stroke-width="0.5"/>
</g>
</svg>
