<svg width="42" height="42" viewBox="0 0 42 42" fill="none" xmlns="http://www.w3.org/2000/svg">
<g id="students-on-lecture-svgrepo-com 1" clip-path="url(#clip0_1104_544)">
<path id="Vector" d="M7.8928 40.5988C7.35261 40.5988 6.91464 40.1608 6.91464 39.6206V36.0186H5.44519C4.905 36.0186 4.46703 35.5806 4.46703 35.0404C4.46703 34.5002 4.905 34.0622 5.44519 34.0622H7.87128C7.88559 34.062 7.90002 34.062 7.91444 34.0622H39.8501C40.3903 34.0622 40.8283 34.5002 40.8283 35.0404C40.8283 35.5806 40.3903 36.0186 39.8501 36.0186H8.87097V39.6206C8.87097 40.1608 8.43312 40.5988 7.8928 40.5988ZM0.978044 36.0192C0.855652 36.0192 0.731058 35.9961 0.610622 35.9472C0.110047 35.7441 -0.13107 35.1735 0.0720209 34.673L2.73042 28.1211C3.90471 25.2277 6.00959 21.3811 10.7121 21.3811H14.2381C16.7715 21.3811 18.8573 22.5085 20.4374 24.732C20.4794 24.7889 20.9008 25.3356 21.2725 25.8179C21.5403 26.1655 21.828 26.5387 22.0672 26.8499C22.3965 27.2782 22.3162 27.8922 21.8879 28.2216C21.4596 28.551 20.8455 28.4706 20.5162 28.0423C20.2773 27.7316 19.9902 27.3589 19.7228 27.0119C19.0071 26.0829 18.8751 25.9111 18.8409 25.8627C18.0783 24.7895 17.2228 24.0732 16.2226 23.6858L13.2652 27.7383C13.0811 27.9905 12.7874 28.1398 12.4751 28.1398C12.1629 28.1398 11.8692 27.9905 11.685 27.7383L8.72766 23.6858C7.01233 24.3516 5.70282 25.9991 4.54308 28.8567L1.8848 35.4084C1.73062 35.7887 1.36454 36.0192 0.978044 36.0192ZM10.8954 23.3375L12.4753 25.5025L14.0551 23.3375H10.8954ZM27.5838 32.2041H16.8321C16.2919 32.2041 15.8539 31.7661 15.8539 31.2259C15.8539 30.6857 16.2919 30.2478 16.8321 30.2478H27.5838C28.124 30.2478 28.562 30.6857 28.562 31.2259C28.562 31.7661 28.1241 32.2041 27.5838 32.2041ZM41.022 24.0703C40.6355 24.0703 40.2694 23.8398 40.1152 23.4597L37.9173 18.0426C37.0066 15.7987 35.9872 14.4788 34.6715 13.9129L32.3062 17.1542C32.122 17.4064 31.8285 17.5557 31.5161 17.5557C31.2037 17.5557 30.9101 17.4064 30.7259 17.1542L28.3596 13.9118C27.6135 14.231 26.9687 14.7885 26.3893 15.6038C26.3298 15.6873 24.7527 17.7929 24.2514 18.4455C23.9222 18.8739 23.3082 18.9543 22.8797 18.6252C22.4514 18.2961 22.371 17.6819 22.7001 17.2536C23.2002 16.6028 24.7199 14.5727 24.7999 14.4634C26.1347 12.585 27.9055 11.6287 30.0582 11.6287H32.9736C36.9641 11.6287 38.7408 14.8693 39.7302 17.3069L41.9281 22.7241C42.1312 23.2247 41.8901 23.7952 41.3895 23.9983C41.269 24.0471 41.1444 24.0703 41.022 24.0703ZM30.543 13.585L31.5161 14.9181L32.489 13.585H30.543ZM36.3764 22.0867H21.6598C21.1196 22.0867 20.6817 21.6487 20.6817 21.1085C20.6817 20.5684 21.1196 20.1304 21.6598 20.1304H36.3764C36.9166 20.1304 37.3546 20.5684 37.3546 21.1085C37.3546 21.6487 36.9166 22.0867 36.3764 22.0867ZM12.4753 19.6447C9.54357 19.6447 7.15857 17.2596 7.15857 14.3279C7.15857 11.9139 8.77596 9.87043 10.9838 9.2241C10.9952 9.22044 11.0068 9.21689 11.0184 9.21359C11.2847 9.1379 11.5566 9.08325 11.8316 9.04999C12.003 9.02921 12.1773 9.01661 12.3533 9.01258C12.3554 9.01123 12.357 9.01245 12.359 9.01233C12.3608 9.01221 12.3628 9.01233 12.3645 9.01221C12.3661 9.01221 12.3678 9.01221 12.3694 9.01221C12.3707 9.01209 12.3719 9.01209 12.3736 9.01209C12.4049 9.01148 12.437 9.01062 12.4677 9.01111C12.4696 9.01099 12.4718 9.01099 12.4743 9.01111C12.4748 9.01111 12.4754 9.01111 12.4754 9.01111C12.4767 9.01111 12.4777 9.01099 12.4792 9.01111C12.4819 9.01111 12.4844 9.01111 12.4871 9.01111C12.4886 9.01111 12.49 9.01123 12.4913 9.01111C12.4926 9.01111 12.494 9.01111 12.4954 9.01111C12.4969 9.01111 12.4987 9.01111 12.4998 9.01111C12.5013 9.01111 12.503 9.01123 12.5045 9.01123C12.5061 9.01123 12.5078 9.01123 12.5094 9.01123H12.51C15.2167 9.02835 17.4574 11.0453 17.7584 13.7279C17.7807 13.9248 17.7921 14.1251 17.7921 14.3278C17.7918 17.2597 15.4068 19.6447 12.4753 19.6447ZM10.6021 11.5392C9.70546 12.1433 9.11477 13.1678 9.11477 14.3279C9.11477 16.1809 10.6222 17.6884 12.4751 17.6884C14.0849 17.6884 15.4338 16.5507 15.7602 15.037C15.7077 15.0386 15.6551 15.0393 15.6026 15.0393C13.309 15.0393 11.3444 13.603 10.6021 11.5392ZM12.4781 10.9676C12.9717 12.2181 14.185 13.0805 15.5964 13.0831C15.1047 11.8544 13.9074 10.9814 12.5084 10.9677C12.5068 10.9677 12.5051 10.9677 12.5035 10.9677C12.502 10.9678 12.5004 10.9678 12.4987 10.9677C12.4973 10.9676 12.4955 10.9674 12.4938 10.9676C12.4922 10.9676 12.4907 10.9676 12.4891 10.9676C12.4874 10.9676 12.4858 10.9676 12.4842 10.9676C12.4822 10.9674 12.4803 10.9674 12.4781 10.9676ZM31.5161 10.5318C28.9987 10.5318 26.9507 8.48376 26.9507 5.96645C26.9507 3.44903 28.9987 1.40088 31.5161 1.40088C34.0335 1.40088 36.0815 3.44903 36.0815 5.96645C36.0815 8.48376 34.0334 10.5318 31.5161 10.5318ZM31.5161 3.35721C30.0774 3.35721 28.907 4.5277 28.907 5.96645C28.907 7.40509 30.0774 8.57546 31.5161 8.57546C32.9548 8.57546 34.1252 7.40509 34.1252 5.96645C34.1252 4.52782 32.9547 3.35721 31.5161 3.35721Z" fill="black"/>
</g>
<defs>
<clipPath id="clip0_1104_544">
<rect width="42" height="42" fill="white"/>
</clipPath>
</defs>
</svg>
