<svg width="32" height="33" viewBox="0 0 32 33" fill="none" xmlns="http://www.w3.org/2000/svg">
<g id="ph:chalkboard-teacher-light">
<path id="Vector" d="M27 6.05005H5C4.53587 6.05005 4.09075 6.23442 3.76256 6.56261C3.43437 6.8908 3.25 7.33592 3.25 7.80005V25.8C3.25 26.2642 3.43437 26.7093 3.76256 27.0375C4.09075 27.3657 4.53587 27.55 5 27.55H6.67375C6.81567 27.55 6.95467 27.5097 7.0746 27.4338C7.19453 27.3579 7.29046 27.2495 7.35125 27.1213C7.85771 26.0517 8.65745 25.1479 9.65743 24.5149C10.6574 23.882 11.8165 23.546 13 23.546C14.1835 23.546 15.3426 23.882 16.3426 24.5149C17.3426 25.1479 18.1423 26.0517 18.6488 27.1213C18.7095 27.2495 18.8055 27.3579 18.9254 27.4338C19.0453 27.5097 19.1843 27.55 19.3263 27.55H27C27.4641 27.55 27.9092 27.3657 28.2374 27.0375C28.5656 26.7093 28.75 26.2642 28.75 25.8V7.80005C28.75 7.33592 28.5656 6.8908 28.2374 6.56261C27.9092 6.23442 27.4641 6.05005 27 6.05005ZM9.75 18.8C9.75 18.1573 9.94061 17.5289 10.2977 16.9944C10.6548 16.46 11.1624 16.0434 11.7563 15.7974C12.3501 15.5515 13.0036 15.4871 13.634 15.6125C14.2645 15.7379 14.8436 16.0474 15.2981 16.502C15.7526 16.9565 16.0621 17.5356 16.1876 18.166C16.313 18.7964 16.2486 19.4499 16.0026 20.0438C15.7566 20.6376 15.3401 21.1452 14.8056 21.5023C14.2711 21.8594 13.6428 22.05 13 22.05C12.138 22.05 11.3114 21.7076 10.7019 21.0981C10.0924 20.4887 9.75 19.662 9.75 18.8ZM27.25 25.8C27.25 25.8664 27.2237 25.9299 27.1768 25.9768C27.1299 26.0237 27.0663 26.05 27 26.05H19.7838C18.9092 24.4804 17.5191 23.2611 15.8488 22.5988C16.6466 22.0008 17.2361 21.1669 17.5336 20.2153C17.8311 19.2636 17.8216 18.2425 17.5065 17.2965C17.1913 16.3506 16.5865 15.5278 15.7777 14.9447C14.9689 14.3616 13.9971 14.0479 13 14.0479C12.0029 14.0479 11.0311 14.3616 10.2223 14.9447C9.41349 15.5278 8.80865 16.3506 8.49351 17.2965C8.17836 18.2425 8.16888 19.2636 8.46641 20.2153C8.76394 21.1669 9.35339 22.0008 10.1512 22.5988C8.4809 23.2611 7.09078 24.4804 6.21625 26.05H5C4.9337 26.05 4.87011 26.0237 4.82322 25.9768C4.77634 25.9299 4.75 25.8664 4.75 25.8V7.80005C4.75 7.73374 4.77634 7.67016 4.82322 7.62327C4.87011 7.57639 4.9337 7.55005 5 7.55005H27C27.0663 7.55005 27.1299 7.57639 27.1768 7.62327C27.2237 7.67016 27.25 7.73374 27.25 7.80005V25.8ZM24.75 10.8V22.8C24.75 22.999 24.671 23.1897 24.5303 23.3304C24.3897 23.471 24.1989 23.55 24 23.55H22C21.8011 23.55 21.6103 23.471 21.4697 23.3304C21.329 23.1897 21.25 22.999 21.25 22.8C21.25 22.6011 21.329 22.4104 21.4697 22.2697C21.6103 22.1291 21.8011 22.05 22 22.05H23.25V11.55H8.75V12.8C8.75 12.999 8.67098 13.1897 8.53033 13.3304C8.38968 13.471 8.19891 13.55 8 13.55C7.80109 13.55 7.61032 13.471 7.46967 13.3304C7.32902 13.1897 7.25 12.999 7.25 12.8V10.8C7.25 10.6011 7.32902 10.4104 7.46967 10.2697C7.61032 10.1291 7.80109 10.05 8 10.05H24C24.1989 10.05 24.3897 10.1291 24.5303 10.2697C24.671 10.4104 24.75 10.6011 24.75 10.8Z" fill="black"/>
</g>
</svg>
