<svg width="43" height="42" viewBox="0 0 43 42" fill="none" xmlns="http://www.w3.org/2000/svg">
<g id="teacher-social-svgrepo-com 1" clip-path="url(#clip0_1104_555)">
<g id="Group">
<g id="Group_2">
<g id="Group_3">
<path id="Vector" d="M19.1807 12.3005H15.8984V13.5888H19.1807V12.3005Z" fill="black"/>
<path id="Vector_2" d="M27.714 12.3005H24.4316V13.5888H27.714V12.3005Z" fill="black"/>
<path id="Vector_3" d="M11.9594 33.4783H10.6465V34.7665H11.9594V33.4783Z" fill="black"/>
<path id="Vector_4" d="M6.05078 39.3617H6.7195V41.9998H8.00771V38.0735H6.05078V39.3617Z" fill="black"/>
<path id="Vector_5" d="M32.9652 33.4783H31.6523V34.7665H32.9652V33.4783Z" fill="black"/>
<path id="Vector_6" d="M35.6035 41.9998H36.8917V39.3617H37.5606V38.0735H35.6035V41.9998Z" fill="black"/>
<path id="Vector_7" d="M21.8051 27.5706C20.7123 27.5706 19.8234 26.6816 19.8234 25.5889H18.5352C18.5352 27.3919 20.002 28.8587 21.805 28.8587C23.608 28.8587 25.0748 27.3919 25.0748 25.5889H23.7866C23.7869 26.6816 22.8978 27.5706 21.8051 27.5706Z" fill="black"/>
<path id="Vector_8" d="M39.4866 32.1153C37.516 29.5102 34.7655 27.5243 31.6913 26.474C32.0825 25.3757 32.2962 24.1938 32.2962 22.963V19.012H32.3086C33.7497 19.012 34.9221 17.8397 34.9221 16.3986C34.9221 14.9575 33.7498 13.7852 32.3086 13.7852H32.2962V11.1347H33.6091V7.50552C33.6091 5.17682 31.7145 3.28223 29.3858 3.28223C28.7608 3.28223 28.1804 3.47656 27.7012 3.80747V3.04573C27.7013 1.36631 26.335 0 24.6555 0H19.8362C14.0515 0 9.34541 4.70612 9.34541 10.4907V11.1348H11.3148V13.7853H11.3024C9.86139 13.7853 8.68892 14.9576 8.68892 16.3988C8.68892 17.8399 9.86123 19.0122 11.3024 19.0122H11.3148V22.9631C11.3148 24.2006 11.5309 25.3885 11.926 26.4918C8.87234 27.5465 6.14144 29.525 4.18156 32.1157C2.01454 34.9804 0.869141 38.3983 0.869141 41.9999H2.15736C2.15736 38.6812 3.21269 35.532 5.20908 32.8928C6.74716 30.8594 8.80048 29.236 11.1133 28.1985L7.23311 34.8503L10.9969 39.2415L9.3455 40.3423V41.9998H10.6337V41.0316L12.9211 39.5067L8.8077 34.7077L12.6618 28.1004C13.5865 29.7396 14.9387 31.1068 16.5665 32.0491V41.9998H17.8547V32.6807C18.2778 32.8533 18.7143 32.9995 19.1626 33.1163V36.6165C19.1626 37.037 19.4991 37.3798 19.9168 37.3913L19.1626 38.5226V41.9999H20.4508V38.9128L21.4643 37.3926H22.0879L23.1014 38.9128V41.9999H24.3896V38.5226L23.6354 37.3913C24.0531 37.3798 24.3896 37.037 24.3896 36.6165V33.1315C24.8636 33.011 25.3243 32.8574 25.7702 32.6748V41.9999H27.0584V32.0407C28.68 31.0986 30.0277 29.7351 30.9498 28.1006L34.8039 34.7078L30.6905 39.5069L32.9779 41.0318V41.9999H34.2661V40.3424L32.6148 39.2415L36.3785 34.8504L32.478 28.1639C34.8225 29.1997 36.9043 30.8367 38.4596 32.8927C40.4562 35.5319 41.5115 38.6812 41.5115 42H42.7997C42.7993 38.3983 41.6539 34.9801 39.4866 32.1153ZM11.3149 17.7239H11.3025C10.5718 17.7239 9.97722 17.1294 9.97722 16.3987C9.97722 15.6679 10.5718 15.0735 11.3025 15.0735H11.3149V17.7239ZM32.3086 15.0735C33.0394 15.0735 33.6339 15.6679 33.6339 16.3987C33.6339 17.1294 33.0394 17.7239 32.3086 17.7239H32.2962V15.0735H32.3086ZM27.7013 6.25503C27.7013 5.32611 28.457 4.57036 29.3859 4.57036C31.0042 4.57036 32.3209 5.88704 32.3209 7.50543V9.84652H29.6147C28.5596 9.84652 27.7013 8.98815 27.7013 7.93306V6.25503ZM10.656 9.8466C10.9877 5.07165 14.9784 1.28822 19.8363 1.28822H24.6555C25.6246 1.28822 26.4131 2.0767 26.4131 3.04573V5.63759C26.4131 7.95841 24.525 9.8466 22.2041 9.8466H10.656ZM23.101 36.1043H20.4506V33.4538H23.101V36.1043ZM31.0081 22.9631C31.0081 27.8208 27.2245 31.8109 22.4497 32.1428V31.4969H21.1616V32.1428C16.3867 31.8111 12.6032 27.8209 12.6032 22.9631V15.0735H15.2685C14.8478 15.6238 14.5972 16.3106 14.5972 17.0552C14.5972 18.8582 16.064 20.325 17.8671 20.325C19.6701 20.325 21.1369 18.8581 21.1369 17.0552C21.1369 17.0511 21.1366 17.0469 21.1366 17.0428H22.4747C22.4747 17.0469 22.4744 17.0511 22.4744 17.0552C22.4744 18.8582 23.9412 20.325 25.7443 20.325C27.5473 20.325 29.0141 18.8581 29.0141 17.0552C29.0141 16.3107 28.7635 15.6238 28.3428 15.0735H31.0081V22.9631ZM15.8853 17.0552C15.8853 15.9624 16.7743 15.0735 17.8669 15.0735C18.9595 15.0735 19.8486 15.9624 19.8486 17.0552C19.8486 18.1479 18.9595 19.0369 17.8669 19.0369C16.7743 19.0368 15.8853 18.1477 15.8853 17.0552ZM23.7625 17.0552C23.7625 15.9624 24.6515 15.0735 25.7442 15.0735C26.8368 15.0735 27.7259 15.9624 27.7259 17.0552C27.7259 18.1479 26.8368 19.0369 25.7442 19.0369C24.6515 19.0369 23.7625 18.1477 23.7625 17.0552ZM31.0081 13.7852H25.7443C24.4032 13.7852 23.2488 14.5969 22.7449 15.7546H20.8664C20.3625 14.597 19.208 13.7852 17.8671 13.7852H12.6032V11.1347H22.2042C23.989 11.1347 25.5773 10.2792 26.5823 8.9573C27.0105 10.2218 28.2077 11.1347 29.615 11.1347H31.0084V13.7852H31.0081Z" fill="black"/>
<path id="Vector_9" d="M21.8046 24.2636C22.8835 24.2636 23.7615 23.3858 23.7615 22.3066V21.6501H22.4733V22.3066C22.4733 22.6754 22.1733 22.9754 21.8046 22.9754C21.4359 22.9754 21.1359 22.6754 21.1359 22.3066V21.6501H19.8477V22.3066C19.8477 23.3858 20.7256 24.2636 21.8046 24.2636Z" fill="black"/>
</g>
</g>
</g>
</g>
<defs>
<clipPath id="clip0_1104_555">
<rect width="42" height="42" fill="white" transform="translate(0.833984)"/>
</clipPath>
</defs>
</svg>
